PathFileType	4	(X/Y/Z)	../Python\walking\Walking12\task.trc
DataRate	CameraRate	NumFrames	NumMarkers	Units	OrigDataRate	OrigDataStartFrame	OrigNumFrames
200.000000	200.000000	4	30	mm	200.000000	213	426
Frame#	Time	CLAV			STRN			RASI			LASI			RTH1			RTH2			RTH3			RTB1			RTB2			RTB3			RD5M			RTOE			LTH1			LTH3			LTB1			LTB2			LTB3			LTOE			LD5M			LTH2			RHEE			T10			PE03			RPSI			PE02			LPSI			PE01			C7			RBAK			LHEE			
		X1	Y1	Z1	X2	Y2	Z2	X3	Y3	Z3	X4	Y4	Z4	X5	Y5	Z5	X6	Y6	Z6	X7	Y7	Z7	X8	Y8	Z8	X9	Y9	Z9	X10	Y10	Z10	X11	Y11	Z11	X12	Y12	Z12	X13	Y13	Z13	X14	Y14	Z14	X15	Y15	Z15	X16	Y16	Z16	X17	Y17	Z17	X18	Y18	Z18	X19	Y19	Z19	X20	Y20	Z20	X21	Y21	Z21	X22	Y22	Z22	X23	Y23	Z23	X24	Y24	Z24	X25	Y25	Z25	X26	Y26	Z26	X27	Y27	Z27	X28	Y28	Z28	X29	Y29	Z29	X30	Y30	Z30	

214	1.065	1668.561157226563	1423.631713867188	100.8621063232422	1712.851562500001	1230.488403320313	117.639633178711	1680.826904296876	1028.35986328125	250.1748657226564	1688.947631835938	1025.884155273438	-20.94790077209473	1732.111083984376	783.792846679688	303.1228027343751	1694.915161132813	735.5692138671877	289.417449951172	1735.610717773438	707.254333496094	281.8489074707032	1844.151611328126	399.2196350097659	242.4058990478517	1799.521972656251	356.565887451172	243.1802368164064	1833.263916015626	320.6374816894532	235.6624908447267	1886.329833984376	33.3561477661133	245.4019622802736	1937.995849609376	52.97300720214847	214.3748931884767	1571.623657226563	722.9764404296877	-45.434627532959	1582.794189453126	647.1120605468752	-26.02358627319337	1491.62109375	362.6497192382814	3.045832395553591	1457.24267578125	328.9879760742189	17.14834213256837	1501.666015625	285.3497619628907	16.58370018005372	1611.075439453126	31.1960792541504	92.60142517089847	1562.602783203126	17.9004306793213	42.39126205444337	1537.629882812501	688.750183105469	-32.38198089599611	1738.170288085938	48.898796081543	153.4995574951172	1490.70263671875	1267.574340820313	95.07648468017581	1512.198364257813	1056.5517578125	101.8943481445313	1522.632568359375	1066.760620117188	175.6258850097657	1516.774047851563	1055.438598632813	152.8214263916016	1516.779418945313	1071.359497070313	76.43471527099612	1527.410888671875	1115.983642578125	126.8324127197266	1564.631347656251	1523.087280273438	80.12507629394534	1524.078247070313	1443.285278320313	251.5369873046876	1395.003540039063	44.65036010742189	105.1892242431641	
215	1.07	1674.781860351563	1422.647583007813	101.0109024047852	1718.795532226563	1229.444458007813	117.8222351074219	1687.159667968751	1027.630859375	250.4062500000001	1694.546997070313	1025.071411132813	-20.87215423583985	1738.435913085938	782.8312988281255	303.2971496582032	1701.225341796876	734.6441650390627	289.7324829101564	1741.936279296876	706.3326416015627	282.0785217285157	1854.421752929688	398.4640808105471	242.3141326904298	1811.130737304688	354.4636535644532	243.1943817138673	1845.904663085938	319.6054077148439	235.6687469482423	1908.531372070313	33.69000625610353	244.8628082275392	1959.387939453126	54.84237289428714	213.5840759277345	1575.887939453126	722.6418457031252	-45.28301239013673	1586.588745117188	646.7165527343752	-25.85752868652345	1493.698974609375	362.781707763672	3.408123016357424	1459.119995117188	329.3261108398439	17.52631568908692	1503.27783203125	285.4167480468751	16.9303321838379	1611.216918945313	31.16511344909669	92.6026306152344	1562.510253906251	18.00530052185059	42.54206848144533	1541.697998046876	688.647644042969	-32.08860397338869	1759.428100585938	45.08536911010744	153.8517608642579	1496.634643554688	1266.817626953125	95.00630950927737	1518.119384765625	1055.628540039063	102.4924926757813	1528.71630859375	1065.81591796875	176.1881103515626	1522.831787109375	1054.505615234375	153.4132995605469	1522.596313476563	1070.463623046875	77.03597259521487	1533.299438476563	1115.082885742188	127.4054718017579	1570.922851562501	1522.205322265625	80.13743591308597	1530.062377929688	1442.466186523438	251.4307098388673	1395.141967773438	45.19019317626955	105.7478713989258	
216	1.075	1681.014648437501	1421.63232421875	101.1714172363282	1724.755859375001	1228.370849609375	118.0188751220704	1693.543579101563	1026.856323242188	250.6695556640626	1700.172119140626	1024.244506835938	-20.78594398498536	1744.619873046876	781.694702148438	303.4866333007814	1707.364990234376	733.589050292969	289.9765014648439	1748.069580078126	705.2376098632815	282.2869262695314	1864.505004882813	397.7097778320315	242.2395172119142	1822.583129882813	352.4098205566407	243.2103118896486	1858.351684570313	318.6482849121095	235.684539794922	1930.506591796876	34.34692001342775	244.2332458496095	1980.484497070313	56.99903869628909	212.6615447998048	1580.186035156251	722.296813964844	-45.12349700927736	1590.419311523438	646.310241699219	-25.69683074951173	1495.807373046875	362.9185791015626	3.786690235137941	1461.028442382813	329.6745910644532	17.9277629852295	1504.913330078125	285.4903869628907	17.28924942016602	1611.350219726563	31.13603591918947	92.60516357421878	1562.408447265626	18.11831283569337	42.70613098144533	1545.806396484376	688.5375976562502	-31.77280235290529	1780.518432617188	41.64758300781251	154.2368469238282	1502.579223632813	1266.025390625	94.95640563964847	1524.07373046875	1054.664794921875	103.1077957153321	1534.838012695313	1064.826782226563	176.7676544189454	1528.926391601563	1053.529296875	154.0216979980469	1528.442749023438	1069.527709960938	77.65567779541018	1539.215087890626	1114.14111328125	127.9992752075196	1577.223022460938	1521.291137695313	80.16056823730472	1536.063232421876	1441.615966796875	251.3403472900392	1395.2880859375	45.75926589965822	106.3155670166016	
217	1.08	1687.260009765626	1420.589233398438	101.3437500000001	1730.735107421876	1227.270385742188	118.2280654907227	1699.980590820313	1026.038330078125	250.9625701904298	1705.825561523438	1023.403259277344	-20.69137763977051	1750.666381835938	780.3887329101567	303.6908264160157	1713.335815429688	732.4088134765627	290.1498413085939	1754.009277343751	703.9726562500002	282.473358154297	1874.400512695313	396.9610900878909	242.1807708740236	1833.874145507813	350.4114379882814	243.2293090820314	1870.597534179688	317.7701416015626	235.7062225341798	1952.212768554688	35.33162689208986	243.5152435302736	2001.248046875001	59.44624328613284	211.6140441894532	1584.520507812501	721.937927246094	-44.95423507690431	1594.293212890626	645.8901367187502	-25.53846549987794	1497.95166015625	363.0599060058595	4.182042121887209	1462.972778320313	330.0334472656251	18.35215377807618	1506.576538085938	285.570281982422	17.66161346435548	1611.474487304688	31.10876083374025	92.61016845703128	1562.297485351563	18.23883247375489	42.88381576538087	1549.959472656251	688.4141845703127	-31.43445777893068	1801.403442382813	38.58696365356447	154.6447296142579	1508.538208007813	1265.199096679688	94.92730712890628	1530.063842773438	1053.661865234375	103.7397766113282	1541.000122070313	1063.796142578125	177.3639678955079	1535.06005859375	1052.512084960938	154.6461334228516	1534.321411132813	1068.552856445313	78.29307556152347	1545.161132812501	1113.159790039063	128.6124572753907	1583.531616210938	1520.34765625	80.19559478759768	1542.081787109376	1440.736206054688	251.2669982910157	1395.441528320313	46.36012649536134	106.8890228271485	
